# xmcd
#
# Track frame offsets: 
#        150
#        11161
#        22911
#        36089
#        47877
#        60640
#        75062
#        91264
#        103725
#        117072
#        131489
#        143380
#        155418
#        168659
#        180059
#        196675
#        211225
#        221663
#        236302
#        246215
#        260128
#        272906
#        285114
#        299154
#        310451
#
# Disc length: 4328 seconds
#
# Revision: 2
# Processed by: cddbd v1.5.2PL0 Copyright (c) Steve Scherf et al.
# Submitted via: ExactAudioCopyFreeDBPlugin 1.0
#
DISCID=5510e619
DTITLE=Various Artist - Bob Dylan's Jukebox
DYEAR=2006
DGENRE=Folk/Rock
TTITLE0=Little Richard - Tutti Frutti (1955)
TTITLE1=Elvis Presley - Milcow Blues Boogie (1954)
TTITLE2=Arthur "Big Boy" Crudup - That's All Right (1946)
TTITLE3=Arthur "Big Boy" Crudup - Mean Old 'Frisco (1942)
TTITLE4=Lightnin’ Hopkins - Automobile (1949)
TTITLE5=Woody Guthrie - Pretty Boy Floyd (1939)
TTITLE6=Cisco Huston - 900 Miles (1953)
TTITLE7=Mississippi John Hurt - Candy Man (1928)
TTITLE8=Memphis Jug Band - Stealin', Stealin' (1928)
TTITLE9=Blind Willie Johnson - Jesus Make Up My Dyin' Bed - trad. (192
TTITLE9=7)
TTITLE10=Roy Acuff - Wait For The Light To Shine (1949)
TTITLE11=Johnny and Jack - This World Can't Stay Long (1950)
TTITLE12=Blind John Fuller - Mama Let Me Lay It On You (1936)
TTITLE13=Blind Willie McTell - Delia - trad. (1940)
TTITLE14=Josh White - St. James Infirmary - trad. (1944)
TTITLE15=The Carter Family - Little Moses (1932)
TTITLE16=Stanley Brothers - Little Maggie - trad. (1946)
TTITLE17=Mississippi Sheiks - I Got Blood In My Eyes For You - trad. (
TTITLE17=1931)
TTITLE18=Leadbelly - Midnight Special - trad. (1934)
TTITLE19=Buell Kazee - The Wagoners Lad (1928)
TTITLE20=Bently Boys - Down On Penny's Farm - trad. (1929)
TTITLE21=Hank Williams - Lost Highway (1949)
TTITLE22=Richard (Rabbit) Brown - James Alley Blues (1927)
TTITLE23=Robert Johnson - Stones In My Passway (1937)
TTITLE24=Chubby Parker - King Kong Kitchie Kitchie Ki-Me-O - trad. (19
TTITLE24=28)
EXTD=
EXTT0=
EXTT1=
EXTT2=
EXTT3=
EXTT4=
EXTT5=
EXTT6=
EXTT7=
EXTT8=
EXTT9=
EXTT10=
EXTT11=
EXTT12=
EXTT13=
EXTT14=
EXTT15=
EXTT16=
EXTT17=
EXTT18=
EXTT19=
EXTT20=
EXTT21=
EXTT22=
EXTT23=
EXTT24=
PLAYORDER=
